# xmcd
#
# Track frame offsets: 
#        150
#        19620
#        43642
#        58270
#        69697
#        147555
#        180100
#        208002
#        220672
#        236792
#
# Disc length: 4235 seconds
#
# Revision: 32
# Processed by: cddbd v1.5.2PL0 Copyright (c) Steve Scherf et al.
# Submitted via: ExactAudioCopyFreeDBPlugin 1.0
#
DISCID=9310890a
DTITLE=The Doors - Box Set - Part 1 (Live In New York) [CD2]
DYEAR=1998
DGENRE=Rock
TTITLE0=Roadhouse Blues
TTITLE1=Ship Of Fools
TTITLE2=Peace Frog
TTITLE3=Blue Sunday
TTITLE4=The Celebration Of The Lizard
TTITLE5=Gloria
TTITLE6=Crawling King Snake
TTITLE7=Money
TTITLE8=Poontang Blues-Build Me A Woman-Sunday Trucker
TTITLE9=The End
EXTD=YEAR: 1998
EXTT0=
EXTT1=
EXTT2=
EXTT3=
EXTT4=
EXTT5=
EXTT6=
EXTT7=
EXTT8=
EXTT9=
PLAYORDER=
